<?xml version="1.0" encoding="utf-8"?>
<!-- Generator: Adobe Illustrator 21.0.0, SVG Export Plug-In . SVG Version: 6.00 Build 0)  -->
<svg version="1.1" xmlns="http://www.w3.org/2000/svg" xmlns:xlink="http://www.w3.org/1999/xlink" x="0px" y="0px"
	 viewBox="0 0 930.1 283.5" style="enable-background:new 0 0 930.1 283.5;" xml:space="preserve">
<path d="M657.8,177.7h39.6v2.1h-39.6v32.8h-2.3v-70.9h46.1v2.1h-43.8V177.7z M748,212.6h-2.2v-7.5c-4.4,5.6-12,9.1-20.3,9.1
	c-11.3,0-19.4-7.4-19.4-20.1v-28.3h2.2V194c0,11.5,7.3,18,17.2,18c8.3,0,16.3-4,20.3-10.5v-35.8h2.2V212.6z M791.3,212.9
	c-3.2,0.8-6.3,1.3-8.4,1.3c-10.3,0-14.3-4.8-14.3-17.3v-29.1H754v-2.1h14.6V148h2.2v17.7h18.1v2.1h-18.1v29.1
	c0,10.9,3.3,15.2,12.1,15.2c2.3,0,5.2-0.4,7.9-1L791.3,212.9z M838.9,212.6h-2.2v-7.5c-4.4,5.6-12,9.1-20.3,9.1
	c-11.3,0-19.4-7.4-19.4-20.1v-28.3h2.2V194c0,11.5,7.3,18,17.2,18c8.3,0,16.3-4,20.3-10.5v-35.8h2.2V212.6z M854.8,176.4
	c4.2-7.5,11.7-12.3,19.8-12.3v2.1c-8.2,0-15.9,5.8-19.8,14.8v31.6h-2.2v-46.9h2.2V176.4z M921.7,189.6v0.4h-44.5
	c0.4,12.1,9.4,22,21.7,22c8.5,0,15.4-4,17.9-10h2.5c-2.7,7.3-10.5,12.1-20.4,12.1c-13.9,0-24-11.2-24-24.9c0-13.8,10.1-24.9,24-24.9
	C912.6,164.2,921.5,175.2,921.7,189.6z M919.3,187.9c-0.7-12.3-8.5-21.6-20.4-21.6c-12.2,0-21.1,9.6-21.7,21.6H919.3z M925.3,211
	c0-1.4,1-2.4,2.4-2.4c1.4,0,2.4,1,2.4,2.4c0,1.4-1,2.4-2.4,2.4C926.4,213.4,925.3,212.4,925.3,211z"/>
<path d="M383.5,212.6h-2.3l0.1-66.8l-28.9,50.1H350l-28.9-50.1l0.1,66.8h-2.3v-70.9h2.5l29.8,51.8l29.8-51.8h2.5V212.6z
	 M442.5,212.6h-2.2v-7.8c-4.8,5.8-11.5,9.4-19.8,9.4c-13.9,0-25-11.2-25-25c0-13.8,11.2-24.9,25-24.9c8.3,0,15,3.5,19.8,9.4v-7.9
	h2.2V212.6z M440.3,201.2v-24.1c-4.6-6.8-11.6-10.8-19.8-10.8c-12.6,0-22.7,10.3-22.7,22.8c0,12.6,10.1,22.9,22.7,22.9
	C428.8,212.1,435.7,208,440.3,201.2z M458.2,197.2v15.4H456v-74h2.2v55.7l32.5-28.6h3.1l-22.3,19.8l27.4,27.1h-3.1L469.7,187
	L458.2,197.2z M505.3,147c0-1.4,1-2.4,2.4-2.4c1.4,0,2.4,1,2.4,2.4c0,1.4-1,2.4-2.4,2.4C506.4,149.4,505.3,148.4,505.3,147z
	 M508.9,212.6h-2.2v-46.9h2.2V212.6z M564.8,184.3v28.3h-2.2v-28.3c0-11.5-7.3-18-17.2-18c-8.3,0-16.3,4-20.3,10.5v35.8h-2.2v-46.9
	h2.2v7.5c4.4-5.6,12-9.1,20.3-9.1C556.7,164.1,564.8,171.5,564.8,184.3z M620.1,215.7c0,13.8-9,22.8-22.8,22.8
	c-11.3,0-19.9-6.1-22.1-15.2h2.4c2,7.8,9.7,13.1,19.7,13.1c12.6,0,20.6-8.2,20.6-20.7v-10.9c-5,5.8-12.5,9.4-20.8,9.4
	c-13.9,0-24-11.2-24-25c0-13.8,10.1-24.9,24-24.9c8.3,0,15.8,3.5,20.8,9.4v-7.9h2.2V215.7z M617.9,201.2v-24.1
	c-4.7-6.8-12.6-10.8-20.8-10.8c-12.6,0-21.7,10.3-21.7,22.8c0,12.6,9.1,22.9,21.7,22.9C605.3,212.1,613.2,208,617.9,201.2z"/>
<path d="M141.7,0C63.5,0,0,63.5,0,141.7C0,220,63.5,283.5,141.7,283.5c78.3,0,141.7-63.5,141.7-141.7C283.5,63.5,220,0,141.7,0z
	 M141.7,265.7c-68.5,0-124-55.5-124-124c0-68.5,55.5-124,124-124c68.5,0,124,55.5,124,124C265.7,210.2,210.2,265.7,141.7,265.7z"/>
<path d="M207.5,88.6l25.6,44.3l13-13l-28.3-49H76L65.8,88.6h36.8l-10.6,39.7l-18.6-10.8l-4.7,17.7L87.1,146L74,194.9H53.1v17.7h62
	v-17.7H92.4l10.6-39.7l29.9,17.2l29.9-17.2l10.6,39.7h-22.8v17.7h62v-17.7h-20.9L178.6,146l13-7.5l13.1,22.7l13-13l-19.6-33.9
	l-24.2,14l-10.6-39.7H207.5z M158,137.5L132.9,152l-25.1-14.5l13.1-48.9h24L158,137.5z"/>
<path d="M132.9,26.6c-9.8,0-17.7,7.9-17.7,17.7S123.1,62,132.9,62c9.8,0,17.7-7.9,17.7-17.7S142.7,26.6,132.9,26.6z M132.9,51.4
	c-3.9,0-7.1-3.2-7.1-7.1s3.2-7.1,7.1-7.1c3.9,0,7.1,3.2,7.1,7.1S136.8,51.4,132.9,51.4z"/>
</svg>
