<?xml version="1.0" encoding="utf-8"?>
<!-- Generator: Adobe Illustrator 16.0.0, SVG Export Plug-In . SVG Version: 6.00 Build 0)  -->
<!DOCTYPE svg PUBLIC "-//W3C//DTD SVG 1.1//EN" "http://www.w3.org/Graphics/SVG/1.1/DTD/svg11.dtd">
<svg version="1.1" id="Layer_1" xmlns="http://www.w3.org/2000/svg" xmlns:xlink="http://www.w3.org/1999/xlink" x="0px" y="0px"
	 width="1280px" height="960px" viewBox="0 0 1280 960" enable-background="new 0 0 1280 960" xml:space="preserve">
<g>
	<g>
		<path fill="#ED1C24" d="M304.036,549.729c-5.554,1.367-11.355,2.107-17.321,2.107c-40.121,0-72.63-32.538-72.63-72.631
			c0-31.335,19.839-58.044,47.616-68.224c10.208,21.84,24.329,61.138,24.329,61.138l-29.802,13.024L304.036,549.729z"/>
		<path d="M301.876,408.163c32.839,6.979,57.468,36.124,57.468,71.043c0,31.937-20.608,59.059-49.26,68.773l-22.959-55.338
			c0,0,32.619-10.507,32.619-12.915C319.744,477.893,307.759,430.987,301.876,408.163L301.876,408.163z"/>
	</g>
	<g>
		<path d="M452.699,441.04c1.266,0,1.948,0.682,1.948,1.948v74.025c0,1.264-0.682,1.947-1.948,1.947h-9.059
			c-1.266,0-1.948-0.684-1.948-1.947v-43.832h-0.682l-9.642,44.026c-0.292,1.168-0.974,1.753-2.143,1.753h-4.772
			c-1.169,0-1.851-0.585-2.143-1.753l-9.642-44.026h-0.682v43.832c0,1.264-0.682,1.947-1.948,1.947h-8.961
			c-1.266,0-1.948-0.684-1.948-1.947v-74.025c0-1.267,0.682-1.948,1.948-1.948h12.856c1.169,0,1.851,0.584,2.143,1.753
			l10.812,48.507l10.811-48.507c0.292-1.169,0.974-1.753,2.144-1.753H452.699z"/>
		<path d="M503.249,452.339c0,0.974-0.389,1.655-1.559,1.655h-24.35v19.48h18.604c0.974,0,1.559,0.584,1.559,1.655v9.643
			c0,1.073-0.585,1.655-1.559,1.655h-18.604v19.675h24.35c1.17,0,1.559,0.487,1.559,1.56v9.74c0,0.974-0.389,1.559-1.559,1.559
			h-35.843c-0.876,0-1.461-0.585-1.461-1.559v-74.804c0-0.975,0.585-1.559,1.461-1.559h35.843c1.17,0,1.559,0.584,1.559,1.559
			V452.339z"/>
		<path d="M548.442,441.04c1.072,0,1.559,0.584,1.559,1.559v9.74c0,0.974-0.486,1.558-1.559,1.558h-11.299v63.506
			c0,1.072-0.486,1.559-1.559,1.559h-10.13c-0.974,0-1.558-0.486-1.558-1.559v-63.506h-11.299c-0.974,0-1.559-0.584-1.559-1.558
			v-9.74c0-0.975,0.585-1.559,1.559-1.559H548.442z"/>
		<path d="M594.804,441.04c1.072,0,1.948,0.876,1.948,1.948v61.946c0,9.154-4.869,14.026-14.025,14.026h-10.908
			c-9.156,0-14.026-4.872-14.026-14.026v-61.946c0-1.072,0.877-1.948,1.948-1.948h9.351c1.071,0,1.947,0.876,1.947,1.948v59.22
			c0,2.628,1.364,3.895,3.896,3.895h5.064c2.531,0,3.897-1.267,3.897-3.895v-59.22c0-1.072,0.875-1.948,1.947-1.948H594.804z"/>
		<path fill="#ED1C24" d="M635.019,442.599c0-0.975,0.584-1.559,1.559-1.559h23.375c9.157,0,14.025,4.87,14.025,14.025v23.766
			c0,9.058-4.868,14.024-14.025,14.024h-11.688v24.547c0,0.974-0.486,1.559-1.559,1.559h-10.129c-0.975,0-1.559-0.585-1.559-1.559
			V442.599z M656.837,480.001c2.629,0,3.896-1.462,3.896-3.896v-18.312c0-2.533-1.267-3.896-3.896-3.896h-8.572v26.104H656.837z"/>
		<path fill="#ED1C24" d="M683.718,464.806c0-9.155,4.871-14.025,14.025-14.025h10.91c9.154,0,14.024,4.87,14.024,14.025v40.129
			c0,9.154-4.87,14.026-14.024,14.026h-10.91c-9.154,0-14.025-4.872-14.025-14.026V464.806z M706.51,506.396
			c2.533,0,3.896-1.267,3.896-3.896v-35.259c0-2.533-1.363-3.896-3.896-3.896h-6.233c-2.533,0-3.896,1.363-3.896,3.896V502.5
			c0,2.629,1.363,3.896,3.896,3.896H706.51z"/>
		<path fill="#ED1C24" d="M792.807,450.78c1.364,0,2.046,0.778,1.852,2.045l-9.351,64.383c-0.195,1.168-0.877,1.753-2.143,1.753
			h-10.519c-1.17,0-1.852-0.585-2.144-1.753l-8.961-39.935l-9.058,39.935c-0.293,1.168-0.974,1.753-2.144,1.753h-10.714
			c-1.267,0-1.947-0.585-2.143-1.853l-8.962-64.283c-0.195-1.267,0.487-2.045,1.852-2.045h9.156c1.168,0,1.85,0.584,2.044,1.851
			l4.773,40.712h0.487l9.545-40.907c0.292-1.071,0.974-1.655,2.143-1.655h5.942c1.167,0,1.851,0.584,2.142,1.655l9.546,40.907h0.487
			l4.967-40.712c0.195-1.267,0.779-1.851,2.046-1.851H792.807z"/>
		<path fill="#ED1C24" d="M842.093,462.078c0,0.975-0.391,1.656-1.558,1.656h-24.058v15h18.311c0.974,0,1.558,0.585,1.558,1.654
			v9.645c0,1.069-0.584,1.655-1.558,1.655h-18.311v14.414h24.058c1.167,0,1.558,0.487,1.558,1.56v9.74
			c0,0.974-0.391,1.559-1.558,1.559H804.69c-0.877,0-1.461-0.585-1.461-1.559v-65.063c0-0.975,0.584-1.559,1.461-1.559h35.845
			c1.167,0,1.558,0.584,1.558,1.559V462.078z"/>
		<path fill="#ED1C24" d="M889.817,484.382c0,5.651-1.852,9.646-5.455,11.885l5.066,20.941c0.291,1.168-0.293,1.753-1.365,1.753
			h-9.544c-0.974,0-1.461-0.486-1.656-1.365l-4.675-19.187h-8.67v18.993c0,0.974-0.584,1.559-1.558,1.559h-9.546
			c-0.974,0-1.559-0.585-1.559-1.559v-65.063c0-0.975,0.585-1.559,1.559-1.559h23.377c9.156,0,14.025,4.87,14.025,14.025V484.382z
			 M873.259,485.846c2.533,0,3.896-1.365,3.896-3.897v-14.707c0-2.533-1.363-3.896-3.896-3.896h-9.74v22.501H873.259z"/>
		<path fill="#ED1C24" d="M937.154,506.103h23.182c1.07,0,1.558,0.586,1.558,1.56v9.74c0,1.072-0.487,1.559-1.558,1.559h-34.871
			c-0.974,0-1.557-0.486-1.557-1.559v-74.804c0-0.975,0.583-1.559,1.557-1.559h10.131c1.072,0,1.559,0.584,1.559,1.559V506.103z"/>
		<path fill="#ED1C24" d="M1008.157,518.961c-0.877,0-1.363-0.486-1.56-1.365l-3.116-12.272h-18.311l-3.019,12.272
			c-0.196,0.879-0.683,1.365-1.56,1.365h-9.544c-1.072,0-1.56-0.585-1.267-1.657l16.167-65.16c0.196-0.974,0.78-1.363,1.656-1.363
			h13.539c0.876,0,1.46,0.39,1.656,1.363l16.167,65.16c0.294,1.072-0.193,1.657-1.363,1.657H1008.157z M994.326,467.533
			l-6.136,26.494h12.273L994.326,467.533z"/>
		<path fill="#ED1C24" d="M1065.915,477.955c0,3.604-2.63,6.331-6.137,6.914v0.197c3.507,0.582,6.137,3.309,6.137,6.914v12.954
			c0,9.154-4.967,14.026-14.124,14.026h-23.376c-0.974,0-1.558-0.585-1.558-1.559v-65.063c0-1.072,0.584-1.559,1.558-1.559h23.376
			c9.157,0,14.124,4.87,14.124,14.025V477.955z M1053.545,466.948c0-2.532-1.267-3.896-3.897-3.896h-10.713v15.486h10.713
			c2.534,0,3.897-1.363,3.897-3.799V466.948z M1053.545,495.293c0-2.532-1.267-3.898-3.897-3.898h-10.713v15.294h10.713
			c2.534,0,3.897-1.268,3.897-3.895V495.293z"/>
	</g>
</g>
</svg>
