<?xml version="1.0" encoding="utf-8"?>
<!-- Generator: Adobe Illustrator 16.0.0, SVG Export Plug-In . SVG Version: 6.00 Build 0)  -->
<!DOCTYPE svg PUBLIC "-//W3C//DTD SVG 1.1//EN" "http://www.w3.org/Graphics/SVG/1.1/DTD/svg11.dtd">
<svg version="1.1" id="Layer_1" xmlns="http://www.w3.org/2000/svg" xmlns:xlink="http://www.w3.org/1999/xlink" x="0px" y="0px"
	 width="1280px" height="960px" viewBox="0 0 1280 960" enable-background="new 0 0 1280 960" xml:space="preserve">
<g>
	<path fill="#ED1C24" d="M357.275,549.729c-5.554,1.367-11.355,2.107-17.321,2.107c-40.121,0-72.63-32.538-72.63-72.631
		c0-31.335,19.839-58.044,47.616-68.224c10.208,21.84,24.329,61.138,24.329,61.138l-29.802,13.024L357.275,549.729z"/>
	<path d="M355.115,408.163c32.839,6.979,57.468,36.124,57.468,71.043c0,31.937-20.608,59.059-49.26,68.773l-22.959-55.338
		c0,0,32.619-10.507,32.619-12.915C372.983,477.893,360.998,430.987,355.115,408.163L355.115,408.163z"/>
	<path d="M455.339,450.573l14.574,50.923h0.257l14.617-50.923h11.23v62.412h-8.616v-23.961l0.771-24.005l-0.257-0.043
		l-15.003,48.009h-5.744l-14.96-47.966l-0.257,0.043l0.814,23.962v23.961h-8.616v-62.412H455.339z"/>
	<path d="M539.784,483.965h-23.147v22.418h26.834v6.602h-35.536v-62.412h35.278v6.602h-26.577v20.189h23.147V483.965z"/>
	<path d="M588.565,457.174h-16.032v55.81h-8.702v-55.81h-15.946v-6.602h40.679V457.174z"/>
	<path d="M634.816,450.573v43.251c0,6.459-1.851,11.416-5.551,14.875c-3.701,3.457-8.538,5.186-14.51,5.186
		c-5.887,0-10.646-1.729-14.274-5.186c-3.629-3.459-5.444-8.416-5.444-14.875v-43.251h8.616v43.251c0,4.457,1,7.816,3,10.072
		c2,2.258,4.7,3.387,8.102,3.387c3.543,0,6.329-1.086,8.359-3.258c2.029-2.17,3.043-5.572,3.043-10.201v-43.251H634.816z"/>
	<path fill="#ED1C24" d="M673.61,488.295v24.689h-8.702v-62.412h20.49c5.829,0,10.401,1.732,13.717,5.196
		c3.314,3.465,4.972,8.02,4.972,13.664c0,5.675-1.657,10.236-4.972,13.686c-3.315,3.451-7.888,5.176-13.717,5.176H673.61z
		 M673.61,481.693h11.788c3.285,0,5.771-1.155,7.458-3.463c1.686-2.308,2.529-5.212,2.529-8.711c0-3.555-0.836-6.501-2.508-8.839
		s-4.165-3.506-7.479-3.506H673.61V481.693z"/>
	<path fill="#ED1C24" d="M710.089,486.879c0-6.143,1.607-11.201,4.822-15.173c3.215-3.972,7.623-5.958,13.224-5.958
		c5.573,0,9.974,1.979,13.203,5.937c3.229,3.958,4.844,9.023,4.844,15.195v5.916c0,6.201-1.607,11.268-4.822,15.195
		c-3.215,3.93-7.608,5.895-13.182,5.895c-5.63,0-10.052-1.965-13.267-5.895c-3.215-3.928-4.822-8.994-4.822-15.195V486.879z
		 M718.79,492.76c0,4.24,0.772,7.721,2.315,10.441c1.543,2.723,3.9,4.082,7.072,4.082c3.087,0,5.408-1.359,6.966-4.082
		c1.558-2.721,2.336-6.201,2.336-10.441v-5.93c0-4.182-0.778-7.642-2.336-10.378c-1.558-2.735-3.894-4.104-7.009-4.104
		c-3.144,0-5.486,1.361-7.029,4.082c-1.543,2.723-2.315,6.189-2.315,10.4V492.76z"/>
	<path fill="#ED1C24" d="M788.918,497.939h0.257l6.13-31.335h8.315l-10.63,46.38h-7.159l-8.315-30.82h-0.258l-8.187,30.82h-7.202
		l-10.63-46.38h8.315l6.259,31.078h0.257l8.23-31.078h6.258L788.918,497.939z"/>
	<path fill="#ED1C24" d="M827.282,513.885c-5.516,0-9.931-1.914-13.245-5.744c-3.315-3.828-4.973-8.729-4.973-14.703v-6.771
		c0-6.059,1.622-11.06,4.865-15.003s7.366-5.915,12.367-5.915c5.258,0,9.302,1.793,12.131,5.379
		c2.829,3.587,4.243,8.409,4.243,14.467v6.002h-24.947v1.842c0,4.002,0.879,7.309,2.636,9.924c1.758,2.615,4.251,3.922,7.48,3.922
		c2.4,0,4.458-0.377,6.173-1.135s3.344-1.865,4.887-3.322l2.743,5.4c-1.457,1.658-3.415,3.016-5.873,4.072
		S830.482,513.885,827.282,513.885z M826.297,472.348c-2.516,0-4.53,1.229-6.044,3.689c-1.516,2.459-2.357,5.574-2.529,9.341h16.332
		v-1.768c0-3.309-0.658-6.012-1.972-8.113C830.769,473.399,828.84,472.348,826.297,472.348z"/>
	<path fill="#ED1C24" d="M870.362,473.934l-4.072-0.214c-1.8,0-3.294,0.543-4.479,1.629c-1.187,1.086-2.094,2.614-2.723,4.587
		v33.048h-8.701v-46.38h7.93l0.644,6.987c0.971-2.457,2.242-4.379,3.814-5.766c1.571-1.386,3.387-2.078,5.444-2.078
		c0.571,0,1.157,0.05,1.757,0.149c0.601,0.101,1.072,0.222,1.415,0.364L870.362,473.934z"/>
	<path fill="#ED1C24" d="M906.413,506.383h24.348v6.602h-33.05v-62.412h8.702V506.383z"/>
	<path fill="#ED1C24" d="M961.022,512.984c-0.314-1.057-0.571-2.092-0.771-3.107c-0.2-1.014-0.328-2.035-0.386-3.064
		c-1.286,2.086-2.9,3.787-4.844,5.102c-1.943,1.313-4.101,1.971-6.473,1.971c-3.915,0-6.98-1.236-9.194-3.707
		c-2.215-2.473-3.322-5.779-3.322-9.924c0-4.43,1.507-7.908,4.522-10.438c3.015-2.529,7.251-3.793,12.71-3.793h6.473v-4.73
		c0-2.81-0.629-5.003-1.887-6.581c-1.258-1.575-3.043-2.364-5.357-2.364c-2.087,0-3.766,0.71-5.037,2.13s-1.907,3.195-1.907,5.325
		l-8.273-0.043l-0.129-0.258c-0.143-3.582,1.286-6.77,4.287-9.563c3-2.795,6.872-4.191,11.616-4.191c4.572,0,8.28,1.35,11.124,4.051
		c2.843,2.7,4.265,6.552,4.265,11.551v21.52c0,1.801,0.107,3.535,0.321,5.207c0.215,1.672,0.564,3.309,1.051,4.908H961.022z
		 M950.521,507.283c2.029,0,3.88-0.602,5.552-1.809s2.894-2.717,3.665-4.525v-9.525h-6.602c-2.658,0-4.723,0.855-6.194,2.564
		s-2.207,3.799-2.207,6.27c0,2.098,0.499,3.795,1.5,5.088C947.234,506.637,948.663,507.283,950.521,507.283z"/>
	<path fill="#ED1C24" d="M1012.676,493.652c0,6.145-1.329,11.053-3.986,14.725c-2.658,3.672-6.401,5.508-11.23,5.508
		c-2.43,0-4.552-0.535-6.366-1.607s-3.337-2.65-4.564-4.736l-0.644,5.443h-7.544v-66.87h8.701v25.376
		c1.2-1.856,2.658-3.279,4.372-4.265c1.715-0.986,3.701-1.479,5.959-1.479c4.887,0,8.658,1.965,11.316,5.894
		c2.657,3.93,3.986,9.167,3.986,15.71V493.652z M1004.017,487.352c0-4.459-0.707-8.044-2.121-10.759
		c-1.415-2.715-3.651-4.072-6.709-4.072c-1.943,0-3.594,0.578-4.951,1.736c-1.357,1.157-2.422,2.707-3.193,4.65v22.291
		c0.771,1.885,1.844,3.35,3.215,4.393c1.372,1.045,3.044,1.564,5.016,1.564c3.058,0,5.279-1.213,6.666-3.643
		c1.386-2.43,2.078-5.715,2.078-9.859V487.352z"/>
</g>
</svg>
